<?xml version="1.0" standalone="no"?>
<!DOCTYPE svg PUBLIC "-//W3C//DTD SVG 20010904//EN"
 "http://www.w3.org/TR/2001/REC-SVG-20010904/DTD/svg10.dtd">
<svg version="1.0" xmlns="http://www.w3.org/2000/svg"
 width="340.000000pt" height="280.000000pt" viewBox="0 0 340.000000 280.000000"
 preserveAspectRatio="xMidYMid meet">

<g transform="translate(0.000000,280.000000) scale(0.100000,-0.100000)"
fill="#000000" stroke="none">
<path d="M529 2739 c-177 -26 -350 -159 -426 -329 -51 -111 -52 -143 -52
-1015 0 -872 1 -904 52 -1015 57 -128 174 -241 307 -297 l65 -28 1209 -3
c1345 -3 1255 -7 1385 65 81 45 177 142 218 219 66 125 63 76 63 1059 0 787
-2 898 -16 946 -52 177 -198 324 -384 386 -52 17 -122 18 -1210 19 -635 1
-1180 -2 -1211 -7z m2373 -317 c63 -31 124 -102 143 -165 10 -34 15 -94 15
-179 l0 -128 -1356 0 -1356 0 4 143 c3 120 7 150 26 192 37 80 102 135 187
156 17 4 539 6 1160 6 l1130 -2 47 -23z m156 -1307 c3 -597 3 -598 -68 -678
-22 -25 -62 -56 -88 -69 l-47 -23 -1150 0 -1150 0 -51 27 c-59 31 -98 73 -128
138 -20 44 -21 61 -24 579 -2 294 -1 540 2 548 5 11 238 13 1353 11 l1348 -3
3 -530z"/>
<path d="M580 2328 c-80 -41 -108 -136 -62 -210 31 -51 77 -72 141 -66 44 4
59 11 89 41 30 30 36 44 40 91 6 70 -22 120 -82 147 -53 24 -73 24 -126 -3z"/>
<path d="M715 1380 c-57 -37 -80 -118 -55 -186 6 -15 42 -59 80 -98 l70 -72
-61 -60 c-88 -86 -102 -113 -97 -180 4 -47 10 -61 40 -91 38 -38 98 -53 154
-39 16 4 84 63 165 143 220 216 221 233 15 441 -72 74 -143 140 -158 148 -40
21 -117 18 -153 -6z"/>
<path d="M1383 931 c-77 -36 -109 -118 -75 -195 38 -84 45 -86 363 -86 270 0
277 0 310 23 92 61 90 181 -4 251 -27 20 -42 21 -290 24 -242 2 -265 1 -304
-17z"/>
</g>
</svg>
